<?xml version="1.0" encoding="utf-8"?>
<!-- Generator: Adobe Illustrator 16.0.0, SVG Export Plug-In . SVG Version: 6.00 Build 0)  -->
<!DOCTYPE svg PUBLIC "-//W3C//DTD SVG 1.1//EN" "http://www.w3.org/Graphics/SVG/1.1/DTD/svg11.dtd">
<svg version="1.1" xmlns="http://www.w3.org/2000/svg" xmlns:xlink="http://www.w3.org/1999/xlink" x="0px" y="0px"
	 width="117.34px" height="228.782px" viewBox="0 0 117.34 228.782" enable-background="new 0 0 117.34 228.782"
	 xml:space="preserve">
<g id="Background">
	<rect x="-743.328" y="-150.665" fill="#EAEBED" width="512" height="500"/>
	<rect x="-231.328" y="-150.665" fill="#3B5A9A" width="512" height="500"/>
	<g id="Frame">
		<rect x="-743.328" y="-130.665" fill="#FFFFFF" width="1024" height="0.438"/>
		<rect x="-743.328" y="-110.665" fill="#FFFFFF" width="1024" height="0.438"/>
		<rect x="-251.547" y="-150.665" fill="#FFFFFF" width="0.438" height="500"/>
		<rect x="-723.328" y="-150.665" fill="#FFFFFF" width="0.438" height="500"/>
		<rect x="-211.547" y="-150.665" fill="#FFFFFF" width="0.438" height="500"/>
		<rect x="260.234" y="-150.665" fill="#FFFFFF" width="0.438" height="500"/>
		<rect x="-743.328" y="328.897" fill="#FFFFFF" width="1024" height="0.438"/>
	</g>
	<g id="Text">
		<text transform="matrix(1 0 0 1 -715.8276 -116.6333)"><tspan x="0" y="0" fill="#333333" font-family="'Helvetica'" font-size="10">Facebook </tspan><tspan x="42.66" y="0" fill="#333333" font-family="'Helvetica'" font-size="10">“</tspan><tspan x="47.02" y="0" fill="#333333" font-family="'Helvetica'" font-size="10" letter-spacing="1">f</tspan><tspan x="50.949" y="0" fill="#333333" font-family="'Helvetica'" font-size="10">” Logo</tspan></text>
		<text transform="matrix(1 0 0 1 -300.7295 -116.6333)" fill="#333333" font-family="'Helvetica'" font-size="10">CMYK / .ai</text>
		<text transform="matrix(1 0 0 1 -203.8281 -116.6333)"><tspan x="0" y="0" fill="#FFFFFF" font-family="'Helvetica'" font-size="10">Facebook </tspan><tspan x="42.66" y="0" fill="#FFFFFF" font-family="'Helvetica'" font-size="10">“</tspan><tspan x="47.02" y="0" fill="#FFFFFF" font-family="'Helvetica'" font-size="10" letter-spacing="1">f</tspan><tspan x="50.949" y="0" fill="#FFFFFF" font-family="'Helvetica'" font-size="10">” Logo</tspan></text>
		<text transform="matrix(1 0 0 1 211.2705 -116.6333)" fill="#FFFFFF" font-family="'Helvetica'" font-size="10">CMYK / .ai</text>
	</g>
</g>
<g id="White">
	<path id="White_2_" fill="#FFFFFF" d="M144.389-38.112H-93.045c-8.137,0-14.73,6.594-14.73,14.73v237.434
		c0,8.135,6.594,14.73,14.73,14.73H34.781V125.427H0v-40.28h34.781V55.442c0-34.473,21.055-53.244,51.807-53.244
		c14.73,0,27.391,1.097,31.08,1.587v36.026l-21.328,0.01c-16.725,0-19.963,7.947-19.963,19.609v25.717h39.887l-5.193,40.28H76.377
		v103.355h68.012c8.135,0,14.73-6.596,14.73-14.73V-23.382C159.119-31.519,152.523-38.112,144.389-38.112z"/>
	<g>
		<g>
			<path fill="#FFFFFF" d="M-89.993-33.833c-13.944-0.517-27.606,2.002-41.332,4.089c0.812,1.393,1.622,2.786,2.433,4.178
				c3.17-3.329,7.289-5.197,11.636-6.503c2.44-0.733,4.955-1.013,7.493-1.013c2.234,0,1.656,0.17,1.732,1.949
				c0.273,6.444,5.661,4.336,9.139,1.567c1.196-0.952,0.867-3.297-0.506-3.926c-3.574-1.637-7.318-2.791-11.262-3.008
				c0.589,1.422,1.179,2.845,1.768,4.268c2.569-2.342,5.401-3.722,8.899-3.935c-0.804-0.612-1.607-1.224-2.411-1.835
				c2.345,5.728,6.654,7.234,11.512,3.103c1.547-1.315,0.515-3.597-1.103-4.178c-8.242-2.961-18.516-2.34-26.663,0.667
				c-1.917,0.708-2.635,3.45-0.597,4.569c5.132,2.818,10.062,1.716,15.26-0.415c2.94-1.206,1.654-6.045-1.33-4.821
				c-3.753,1.539-7.55,3.037-11.406,0.919c-0.199,1.523-0.398,3.046-0.597,4.569c7.393-2.729,16.517-3.356,24.003-0.667
				c-0.367-1.393-0.735-2.786-1.103-4.178c-1.052-0.299-2.104-0.598-3.154-0.897c-0.408-0.997-1.214-1.908-2.411-1.835
				c-4.855,0.295-8.853,2.134-12.435,5.399c-1.709,1.557-0.282,4.155,1.768,4.268c3.009,0.166,6.008,1.075,8.738,2.325
				c-0.169-1.309-0.338-2.618-0.506-3.926c-0.695,0.621-1.454,1.143-2.278,1.565c1.79-0.726,1.738,1.906,1.649-0.182
				c-0.042-1.003-0.138-1.997-0.398-2.968c-0.634-2.36-2.854-3.169-5.062-3.314c-8.452-0.554-18.017,2.708-23.911,8.899
				c-1.857,1.95,0.058,4.54,2.433,4.178c13.292-2.021,26.499-4.411,40.002-3.911C-86.768-28.714-86.779-33.714-89.993-33.833
				L-89.993-33.833z"/>
		</g>
	</g>
	<g>
		<g>
			<path fill="#FFFFFF" d="M-59.328-29.078c-7.634-1.203-15.382-1.461-23.024-2.616c-6.906-1.043-16.7-2.618-20.149-9.568
				c-1.433-2.889-5.745-0.354-4.316,2.523c3.584,7.224,12.236,9.723,19.539,11.231c8.783,1.814,17.787,1.859,26.621,3.25
				C-57.505-23.76-56.15-28.577-59.328-29.078L-59.328-29.078z"/>
		</g>
	</g>
	<g>
		<g>
			<path fill="#FFFFFF" d="M-110.589,221.492c2.087,1.612,3.183,4.035,4.479,6.255c1.221,2.091,2.806,3.788,4.854,5.078
				c1.742,1.097,3.583-0.381,3.762-2.159c0.599-5.963-4.101-9.781-9.834-9.167c-2.066,0.222-3.439,2.601-1.768,4.268
				c2.149,2.143,4.296,3.486,7.103,4.643c2.741,1.13,4.172-3.097,1.927-4.569c-2.562-1.68-5.108-1.505-7.93-2.252
				c-2.442-0.646-4.169,2.378-2.433,4.178c2.272,2.356,3.741,4.527,7.103,5.31c2.334,0.543,4.351-2.402,2.433-4.178
				c-1.277-1.183-2.723-2.151-4-3.333c-1.01,1.309-2.02,2.617-3.029,3.926c2.532,1.827,4.315,4.344,7.264,5.585
				c0.443-1.607,0.887-3.214,1.33-4.821c-3.611-1.409-7.356-2.48-10.737-4.415c-0.642,1.523-1.284,3.046-1.927,4.569
				c2.212,0.645,4.049,2.018,6.07,3.081c2.851,1.5,5.378-2.816,2.523-4.317c-2.424-1.275-4.607-2.81-7.264-3.585
				c-2.736-0.798-4.386,3.162-1.927,4.569c3.754,2.148,7.922,3.354,11.931,4.918c3.037,1.186,4.229-3.601,1.33-4.821
				c-2.275-0.958-4.063-3.633-6.07-5.082c-2.324-1.677-5.087,2.021-3.029,3.926c1.277,1.183,2.723,2.151,4,3.333
				c0.811-1.393,1.621-2.786,2.433-4.178c-2.338-0.544-3.299-2.366-4.897-4.023c-0.811,1.393-1.621,2.786-2.433,4.178
				c2.348,0.622,4.62,0.36,6.736,1.748c0.642-1.523,1.284-3.046,1.927-4.569c-1.991-0.82-3.387-1.851-4.897-3.357
				c-0.589,1.422-1.179,2.845-1.768,4.268c3.188-0.342,5.177,0.75,4.834,4.167c1.254-0.72,2.508-1.439,3.762-2.159
				c-2.187-1.376-3.239-3.6-4.479-5.775c-1.266-2.221-2.838-4.002-4.854-5.559C-110.617,215.204-113.103,219.551-110.589,221.492
				L-110.589,221.492z"/>
		</g>
	</g>
	<g>
		<g>
			<path fill="#FFFFFF" d="M166.262-65.998c-3.437,14.482-6.557,29.105-4,43.996c1.394-0.811,2.786-1.622,4.179-2.432
				c-4.309-3.521-8.764-6.726-13.839-9.058c-2.399-1.102-5.348,1.952-3.029,3.926c1.449,1.235,2.806,2.176,4.506,3.058
				c1.776,0.921,3.592-0.245,3.762-2.159c0.347-3.911,1.315-6.188-0.342-9.928c-1.438,0.841-2.878,1.682-4.316,2.523
				c1.685,2.731,4.323,4.616,6,7.333c1.015,1.646,3.288,1.581,4.316,0c3.635-5.587,2.454-13.82,0.645-19.826
				c-1.354-4.497-5.356-11.613-11.138-8.764c-6.542,3.223-7.003,10.456-2.777,15.635c4.029,4.94,12.664,9.229,19.112,8.859
				c2.207-0.126,3.269-2.612,1.768-4.268c-8.648-9.539-22.41-10.66-34.435-12.066c-2.441-0.286-3.465,3.648-1.262,4.659
				c5.739,2.632,11.799,3.615,17.931,4.919c0.222-1.637,0.443-3.274,0.665-4.911c-3.773-0.394-7.025,0.59-10.665,1.422
				c-1.864,0.426-2.38,2.889-1.103,4.178c3.795,3.833,8.721,3.459,13.768,3.399c-0.222-1.637-0.443-3.274-0.665-4.911
				c-1.659,0.25-3.035,0.997-4.667,1.333c-1.848,0.381-2.405,2.934-1.103,4.178c1.319,1.262,2.29,1.063,3.839,1.725
				c2.931,1.25,5.481-3.056,2.523-4.317c-0.662-0.283-2.352-0.488-2.827-0.942c-0.367,1.393-0.735,2.786-1.103,4.178
				c1.616-0.333,3.016-1.085,4.667-1.333c2.836-0.426,2.09-4.943-0.665-4.911c-3.451,0.041-7.55,0.774-10.232-1.935
				c-0.367,1.393-0.735,2.786-1.103,4.178c3.184-0.728,6.029-1.589,9.335-1.244c2.816,0.294,3.396-4.33,0.665-4.911
				c-5.656-1.203-11.437-1.984-16.737-4.415c-0.421,1.553-0.841,3.106-1.262,4.659c10.665,1.248,23.219,2.13,30.899,10.601
				c0.589-1.422,1.179-2.845,1.768-4.268c-4.322,0.248-8.821-2.233-12.31-4.525c-3.302-2.17-7.902-8.546-1.542-10.578
				c2.552-0.815,4.482,8.036,4.758,9.381c0.777,3.799,1.146,8.896-1.064,12.294c1.438,0,2.878,0,4.316,0
				c-1.684-2.731-4.323-4.616-6-7.333c-1.729-2.805-5.596-0.365-4.316,2.523c0.894,2.018-0.146,5.205-0.342,7.405
				c1.254-0.72,2.508-1.439,3.762-2.159c-1.278-0.576-2.442-1.334-3.494-2.275c-1.01,1.309-2.02,2.618-3.029,3.926
				c4.688,2.154,8.838,5.015,12.827,8.275c1.988,1.625,4.613,0.103,4.179-2.432c-2.393-13.932,0.789-27.809,4-41.337
				C171.828-67.804,167.007-69.135,166.262-65.998L166.262-65.998z"/>
		</g>
	</g>
	<g>
		<g>
			<path fill="#FFFFFF" d="M157.572,216.899c-2.248,2.504-3.7,5.211-4.644,8.437c-0.429,1.467,0.787,3.3,2.411,3.165
				c1.381-0.115,2.054-0.303,3.262-1.008c-1.224-0.941-2.448-1.882-3.673-2.823c-0.774,4.247-1.892,8.419-2.667,12.667
				c-0.378,2.077,1.648,4.009,3.673,2.824c2.697-1.579,4.5-3.666,6.231-6.231c1.37-2.031-0.879-3.964-2.824-3.672
				c-1.565,0.235-0.915-2.454-1.002-4.006c-0.123-2.186,0.662-4.258,1.411-6.252c-1.607,0-3.215,0-4.822,0
				c0.54,2.683,0.97,5.452,2,8c0.804-1.055,1.607-2.11,2.411-3.165c-6.334,0.424-11.06,4.063-15.101,8.732
				c-1.799,2.078,0.485,5.453,3.029,3.926c2.822-1.693,4.912-4.033,7.172-6.391c0.896-0.933,1.042-2.624,0-3.535
				c-1.061-0.929-1.709-1.225-3.101-1.399c0.222,1.637,0.443,3.274,0.665,4.911c5.351-1.707,9.53-4.591,12.827-9.149
				c0.994-1.375-0.086-3.212-1.494-3.672c-6.166-2.016-13.073-1.544-17.766,3.31c-1.854,1.917,0.055,4.583,2.433,4.178
				c6.746-1.15,11.765-5.984,16.436-10.643c-1.423-0.589-2.845-1.178-4.268-1.768c-0.094,3.561-0.545,6.237-3.769,8.065
				c-2.764,1.567-5.684,2.625-8.326,4.443c-1.78,1.225-1.555,3.893,0.597,4.569c8.2,2.58,13.305-4.584,17.491-10.482
				c1.87-2.636-2.469-5.129-4.318-2.523c-2.753,3.88-6.253,9.943-11.843,8.185c0.198,1.523,0.397,3.046,0.597,4.569
				c3.23-2.223,7.189-3.3,10.262-5.706c3.513-2.751,4.198-6.88,4.31-11.12c0.058-2.206-2.755-3.277-4.268-1.768
				c-4.094,4.083-8.306,8.347-14.23,9.357c0.812,1.393,1.622,2.786,2.433,4.178c3.488-3.608,8.429-3.485,12.9-2.023
				c-0.498-1.224-0.996-2.448-1.494-3.672c-2.508,3.468-5.799,5.563-9.839,6.851c-2.85,0.909-2.044,4.572,0.665,4.911
				c-0.145-0.022-0.29-0.044-0.435-0.066c0-1.178,0-2.357,0-3.535c-1.959,2.042-3.702,4.134-6.16,5.609
				c1.01,1.309,2.02,2.618,3.029,3.926c3.088-3.567,6.61-6.936,11.565-7.268c1.455-0.097,3.062-1.556,2.411-3.165
				c-1.031-2.548-1.461-5.317-2-8c-0.532-2.646-4.031-2.107-4.822,0c-1.658,4.42-1.999,8.59-0.656,13.133
				c1.055,3.565,3.184,3.758,6.399,3.276c-0.941-1.224-1.883-2.448-2.824-3.672c-1.281,1.899-2.436,3.265-4.437,4.436
				c1.224,0.941,2.448,1.883,3.673,2.824c0.774-4.248,1.893-8.42,2.667-12.667c0.379-2.079-1.647-4.005-3.673-2.823
				c-0.246,0.108-0.492,0.217-0.738,0.326c0.804,1.055,1.607,2.11,2.411,3.165c0.705-2.412,1.673-4.354,3.356-6.23
				C163.254,218.042,159.729,214.494,157.572,216.899L157.572,216.899z"/>
		</g>
	</g>
</g>
<g id="Blue" display="none">
	<path id="Blue_1_" display="inline" fill="#3C5A99" d="M-367.612,228.782c8.134,0,14.73-6.596,14.73-14.73V-23.382
		c0-8.137-6.596-14.73-14.73-14.73h-237.433c-8.138,0-14.73,6.594-14.73,14.73v237.434c0,8.135,6.593,14.73,14.73,14.73H-367.612z"
		/>
	<path id="f" display="inline" fill="#FFFFFF" d="M-435.624,228.782V125.427h34.693l5.194-40.28h-39.887V59.43
		c0-11.662,3.238-19.609,19.962-19.609l21.33-0.01V3.785c-3.69-0.49-16.351-1.587-31.081-1.587
		c-30.752,0-51.806,18.771-51.806,53.244v29.705H-512v40.28h34.781v103.355H-435.624z"/>
</g>
</svg>
